# xmcd
#
# Track frame offsets: 
#        150
#        17448
#        39195
#        56045
#        75870
#        99258
#        118648
#        138423
#        160590
#        179243
#
# Disc length: 2687 seconds
#
# Revision: 0
# Processed by: cddbd v1.5.2PL0 Copyright (c) Steve Scherf et al.
# Submitted via: ExactAudioCopy v1.0b3
#
DISCID=6f0a7d0a
DTITLE=Son Tuyen - Dung Noi Xa Nhau
DYEAR=1991
DGENRE=
TTITLE0=Xin lam chim rung nui
TTITLE1=Sau le bong
TTITLE2=Cho
TTITLE3=Da Lat hoang hon
TTITLE4=Trang sang doi thong
TTITLE5=Dung noi xa nhau
TTITLE6=Neu anh dung hen
TTITLE7=Cai tram em cai
TTITLE8=Tinh hau phuong
TTITLE9=Tu do em buon
EXTD=
EXTT0=
EXTT1=
EXTT2=
EXTT3=
EXTT4=
EXTT5=
EXTT6=
EXTT7=
EXTT8=
EXTT9=
PLAYORDER=
